<svg xmlns="http://www.w3.org/2000/svg" viewBox="0 0 68 68"><rect x="-0.592" width="68" height="68" fill="none" stroke="#fcff42" stroke-miterlimit="10" stroke-width="3"/><polygon points="18.824 43.864 18.754 39.159 15.817 39.017 15.676 25.821 18.86 25.821 18.824 20.939 7.063 20.939 7.028 25.821 10.212 25.821 10.07 39.017 7.134 39.159 7.063 43.864 18.824 43.864" fill="#253c57"/><polygon points="50.782 36.611 51.784 44.112 59.516 44.112 62.462 27.397 56.339 27.378 55.629 38.911 54.32 38.911 52.374 27.236 47.961 27.236 46.015 38.911 44.706 38.911 43.996 27.378 37.873 27.397 40.818 44.112 48.55 44.112 49.553 36.611 50.782 36.611" fill="#253c57"/><path d="M26.981,27.767h5.2c9.269,8.243.46,16.1.46,16.1a38.931,38.931,0,0,1-10.26,0L21.97,21.185l4.82.034ZM26.84,39.406h2.971a6.067,6.067,0,0,0,.46-7.2H26.84Z" fill="#253c57"/></svg>